<?xml version="1.0" encoding="utf-8"?>
<!-- Generator: Adobe Illustrator 16.0.0, SVG Export Plug-In . SVG Version: 6.00 Build 0)  -->
<!DOCTYPE svg PUBLIC "-//W3C//DTD SVG 1.1//EN" "http://www.w3.org/Graphics/SVG/1.1/DTD/svg11.dtd">
<svg version="1.1" id="Layer_1" xmlns="http://www.w3.org/2000/svg" xmlns:xlink="http://www.w3.org/1999/xlink" x="0px" y="0px"
	 width="296.325px" height="77.199px" viewBox="0 0 296.325 77.199" enable-background="new 0 0 296.325 77.199"
	 xml:space="preserve">
<rect x="-161.926" y="-132.335" display="none" fill="#070707" width="612" height="365.889"/>
<g>
	<path fill="#FFFFFF" d="M0,17.2C0,6.68,7.557,0,16.814,0c6.518,0,10.627,3.49,12.988,7.428l-5.525,3.19
		c-1.465-2.343-4.156-4.337-7.462-4.337c-5.762,0-9.918,4.637-9.918,10.918c0,6.281,4.156,10.918,9.918,10.918
		c2.786,0,5.384-1.296,6.66-2.543v-3.988h-8.313v-6.182H30.18v12.763c-3.212,3.79-7.698,6.232-13.366,6.232
		C7.557,34.399,0,27.668,0,17.2z"/>
	<path fill="#FFFFFF" d="M37.593,20.49V0.548h6.801v19.742c0,4.636,2.55,7.827,7.415,7.827c4.864,0,7.368-3.191,7.368-7.827V0.548
		h6.849V20.49c0,8.226-4.628,13.909-14.216,13.909C42.222,34.399,37.593,28.716,37.593,20.49z"/>
	<path fill="#FFFFFF" d="M83.12,33.801V20.19L71.029,0.548h7.651l7.794,13.311l7.792-13.311h7.604L89.827,20.19v13.61H83.12z"/>
	<path fill="#FFFFFF" d="M120.804,33.801V0.548h6.754v27.021h13.32v6.232H120.804z"/>
	<path fill="#FFFFFF" d="M147.488,33.801V0.548h6.706v33.252H147.488z"/>
	<path fill="#FFFFFF" d="M162.222,33.801V0.548h6.756v27.021h13.317v6.232H162.222z"/>
	<path fill="#FFFFFF" d="M188.623,33.801V0.548h6.754v27.021h13.319v6.232H188.623z"/>
	<path fill="#FFFFFF" d="M215.305,33.801V0.548h6.706v33.252H215.305z"/>
	<path fill="#FFFFFF" d="M228.813,17.2c0-10.271,7.319-17.2,16.813-17.2c6.896,0,10.909,3.938,13.132,8.126l-5.764,2.991
		c-1.322-2.692-4.157-4.835-7.368-4.835c-5.762,0-9.919,4.637-9.919,10.918c0,6.281,4.157,10.918,9.919,10.918
		c3.211,0,6.046-2.144,7.368-4.836l5.764,2.941c-2.223,4.138-6.235,8.176-13.132,8.176C236.132,34.399,228.813,27.419,228.813,17.2z
		"/>
	<path fill="#FFFFFF" d="M263.335,17.2c0-10.021,6.941-17.2,16.482-17.2c9.493,0,16.437,7.179,16.437,17.2
		c0,10.02-6.943,17.199-16.437,17.199C270.276,34.399,263.335,27.22,263.335,17.2z M289.358,17.2c0-6.232-3.731-10.918-9.541-10.918
		c-5.855,0-9.587,4.686-9.587,10.918c0,6.181,3.731,10.918,9.587,10.918C285.627,28.118,289.358,23.381,289.358,17.2z"/>
</g>
<g>
	<path fill="#68BA5E" d="M62.105,73.147c-0.693,0.279-1.403,0.485-2.131,0.62c-0.729,0.134-1.48,0.201-2.254,0.201
		c-2.424,0-4.291-0.692-5.6-2.075c-1.309-1.384-1.964-3.405-1.964-6.065c0-1.276,0.188-2.435,0.565-3.475s0.907-1.931,1.589-2.67
		c0.682-0.74,1.497-1.311,2.444-1.713s1.991-0.604,3.132-0.604c0.794,0,1.538,0.059,2.23,0.177c0.693,0.118,1.355,0.311,1.987,0.579
		v2.67c-0.662-0.365-1.336-0.63-2.024-0.796c-0.687-0.166-1.398-0.249-2.132-0.249c-0.683,0-1.326,0.137-1.933,0.41
		c-0.606,0.273-1.138,0.667-1.597,1.182c-0.458,0.515-0.82,1.143-1.084,1.882c-0.265,0.74-0.397,1.577-0.397,2.51
		c0,1.952,0.451,3.413,1.353,4.384c0.902,0.971,2.151,1.456,3.751,1.456c0.723,0,1.424-0.086,2.102-0.257
		c0.677-0.172,1.332-0.429,1.963-0.772V73.147z"/>
	<path fill="#68BA5E" d="M77.406,57.591h2.429l0.077,2.976c0.907-1.147,1.801-1.979,2.682-2.494c0.881-0.515,1.77-0.772,2.666-0.772
		c1.589,0,2.794,0.542,3.614,1.625c0.82,1.083,1.199,2.692,1.138,4.826h-2.689c0.03-1.416-0.165-2.442-0.588-3.081
		c-0.423-0.638-1.042-0.957-1.857-0.957c-0.356,0-0.715,0.067-1.077,0.201c-0.362,0.134-0.733,0.348-1.115,0.643
		c-0.382,0.295-0.788,0.673-1.215,1.134c-0.428,0.461-0.886,1.019-1.375,1.673v10.376h-2.689V57.591z"/>
	<path fill="#68BA5E" d="M116.33,64.814c0,0.397-0.005,0.729-0.015,0.998s-0.026,0.52-0.046,0.756h-10.772
		c0,1.652,0.438,2.92,1.314,3.805c0.876,0.885,2.139,1.327,3.789,1.327c0.448,0,0.896-0.019,1.345-0.056s0.881-0.088,1.299-0.153
		c0.417-0.064,0.818-0.137,1.2-0.217c0.382-0.081,0.736-0.169,1.062-0.265v2.3c-0.723,0.214-1.54,0.389-2.452,0.523
		c-0.912,0.134-1.857,0.201-2.835,0.201c-1.314,0-2.445-0.188-3.392-0.563c-0.947-0.375-1.723-0.919-2.33-1.633
		c-0.606-0.713-1.055-1.587-1.345-2.622c-0.291-1.035-0.436-2.207-0.436-3.515c0-1.137,0.156-2.212,0.467-3.226
		c0.311-1.014,0.764-1.904,1.36-2.67c0.596-0.767,1.326-1.375,2.192-1.826c0.866-0.45,1.849-0.675,2.949-0.675
		c1.069,0,2.017,0.177,2.842,0.531s1.521,0.855,2.086,1.504c0.565,0.649,0.993,1.438,1.283,2.365S116.33,63.667,116.33,64.814z
		 M113.564,64.412c0.031-0.718-0.036-1.375-0.199-1.971c-0.163-0.595-0.415-1.107-0.755-1.536c-0.341-0.429-0.767-0.764-1.277-1.005
		c-0.509-0.242-1.1-0.362-1.772-0.362c-0.581,0-1.111,0.118-1.589,0.354s-0.892,0.568-1.238,0.998
		c-0.346,0.429-0.626,0.944-0.84,1.544s-0.347,1.26-0.397,1.979H113.564z"/>
	<path fill="#68BA5E" d="M139.82,73.743l-0.061-2.172c-0.836,0.869-1.683,1.496-2.543,1.882c-0.861,0.386-1.765,0.58-2.713,0.58
		c-0.876,0-1.625-0.118-2.246-0.354c-0.621-0.236-1.133-0.561-1.535-0.974c-0.403-0.413-0.698-0.898-0.887-1.456
		c-0.188-0.558-0.283-1.164-0.283-1.818c0-1.62,0.574-2.888,1.72-3.805s2.839-1.375,5.08-1.375h3.178v-1.416
		c0-0.954-0.291-1.718-0.871-2.292c-0.581-0.574-1.467-0.86-2.659-0.86c-0.866,0-1.718,0.102-2.559,0.306
		c-0.841,0.204-1.709,0.493-2.606,0.869v-2.526c0.336-0.128,0.711-0.254,1.124-0.378c0.412-0.124,0.847-0.233,1.306-0.33
		c0.458-0.097,0.937-0.174,1.436-0.233c0.5-0.059,1.003-0.088,1.513-0.088c0.927,0,1.762,0.107,2.506,0.322
		c0.744,0.214,1.373,0.542,1.888,0.981c0.514,0.44,0.908,0.992,1.184,1.657s0.413,1.448,0.413,2.349v11.133H139.82z M139.53,66.391
		h-3.377c-0.662,0-1.232,0.069-1.711,0.209c-0.479,0.14-0.871,0.338-1.176,0.595c-0.306,0.257-0.532,0.566-0.68,0.925
		c-0.147,0.359-0.222,0.764-0.222,1.214c0,0.311,0.045,0.609,0.137,0.893s0.239,0.536,0.443,0.756
		c0.204,0.22,0.468,0.394,0.794,0.523c0.326,0.128,0.723,0.193,1.192,0.193c0.611,0,1.312-0.196,2.101-0.587
		c0.79-0.392,1.622-1.011,2.498-1.858V66.391z"/>
	<path fill="#68BA5E" d="M168.918,73.518c-0.601,0.161-1.222,0.276-1.864,0.346c-0.642,0.069-1.293,0.104-1.955,0.104
		c-1.926,0-3.361-0.458-4.31-1.375c-0.946-0.917-1.421-2.325-1.421-4.223v-8.43h-4.293v-2.349h4.293v-4.44l2.658-0.724v5.164h6.892
		v2.349h-6.892v8.205c0,1.158,0.294,2.024,0.88,2.598c0.585,0.574,1.448,0.861,2.59,0.861c0.488,0,1.023-0.041,1.604-0.121
		c0.58-0.08,1.187-0.206,1.817-0.378V73.518z"/>
	<path fill="#68BA5E" d="M188.375,59.908h-4.537v-2.316h7.227V71.41h4.568v2.333h-12.3V71.41h5.042V59.908z M189.307,50.818
		c0.297,0,0.571,0.056,0.826,0.169c0.254,0.113,0.477,0.271,0.664,0.475c0.189,0.204,0.336,0.437,0.444,0.7
		c0.105,0.263,0.159,0.55,0.159,0.861c0,0.3-0.054,0.584-0.159,0.853c-0.108,0.268-0.255,0.504-0.444,0.708
		c-0.188,0.204-0.41,0.362-0.664,0.475c-0.255,0.112-0.529,0.168-0.826,0.168c-0.295,0-0.57-0.056-0.824-0.168
		c-0.255-0.113-0.477-0.271-0.664-0.475c-0.19-0.204-0.337-0.44-0.444-0.708c-0.105-0.268-0.16-0.552-0.16-0.853
		c0-0.311,0.055-0.598,0.16-0.861c0.107-0.263,0.254-0.496,0.444-0.7c0.188-0.204,0.409-0.362,0.664-0.475
		C188.736,50.875,189.012,50.818,189.307,50.818z"/>
	<path fill="#68BA5E" d="M208.306,57.591h3.025l3.76,10.682l0.81,2.606l0.84-2.67l3.729-10.618h2.918l-6.021,16.152h-3.055
		L208.306,57.591z"/>
	<path fill="#68BA5E" d="M249.292,64.814c0,0.397-0.006,0.729-0.015,0.998c-0.011,0.268-0.026,0.52-0.047,0.756h-10.771
		c0,1.652,0.438,2.92,1.313,3.805c0.877,0.885,2.14,1.327,3.789,1.327c0.449,0,0.897-0.019,1.345-0.056
		c0.448-0.038,0.882-0.088,1.299-0.153c0.418-0.064,0.817-0.137,1.2-0.217c0.382-0.081,0.735-0.169,1.062-0.265v2.3
		c-0.723,0.214-1.541,0.389-2.453,0.523c-0.911,0.134-1.855,0.201-2.833,0.201c-1.314,0-2.445-0.188-3.392-0.563
		c-0.948-0.375-1.726-0.919-2.33-1.633c-0.607-0.713-1.056-1.587-1.346-2.622c-0.291-1.035-0.436-2.207-0.436-3.515
		c0-1.137,0.155-2.212,0.467-3.226c0.31-1.014,0.764-1.904,1.358-2.67c0.598-0.767,1.327-1.375,2.193-1.826
		c0.866-0.45,1.849-0.675,2.949-0.675c1.069,0,2.017,0.177,2.842,0.531s1.521,0.855,2.085,1.504
		c0.566,0.649,0.994,1.438,1.284,2.365C249.147,62.629,249.292,63.667,249.292,64.814z M246.526,64.412
		c0.03-0.718-0.035-1.375-0.198-1.971c-0.164-0.595-0.416-1.107-0.757-1.536c-0.342-0.429-0.767-0.764-1.276-1.005
		c-0.509-0.242-1.1-0.362-1.772-0.362c-0.58,0-1.109,0.118-1.589,0.354c-0.479,0.236-0.891,0.568-1.237,0.998
		c-0.347,0.429-0.627,0.944-0.84,1.544c-0.214,0.601-0.347,1.26-0.397,1.979H246.526z"/>
</g>
<g>
	<path fill="#68BA5E" d="M13.26,77.199h-1.02c-1.773,0-3.092-0.416-3.956-1.247c-0.864-0.832-1.295-2.093-1.295-3.783v-4.741
		c0-0.45-0.05-0.852-0.152-1.206c-0.101-0.354-0.277-0.652-0.53-0.896c-0.253-0.244-0.588-0.429-1.006-0.558
		c-0.418-0.129-0.944-0.193-1.578-0.193H3.131V62.66h0.593c0.67,0,1.217-0.055,1.64-0.165c0.423-0.11,0.753-0.278,0.993-0.503
		c0.239-0.226,0.404-0.512,0.496-0.861c0.092-0.35,0.138-0.763,0.138-1.241v-3.266c0-0.772,0.092-1.468,0.275-2.088
		c0.184-0.62,0.485-1.148,0.903-1.585c0.418-0.437,0.96-0.772,1.626-1.006c0.667-0.234,1.482-0.352,2.447-0.352h1.02v1.93h-0.813
		c-2.131,0-3.197,1.034-3.197,3.101v3.211c0,2.241-0.97,3.505-2.908,3.79c1.957,0.193,2.935,1.452,2.935,3.776v4.713
		c0,2.104,1.057,3.156,3.17,3.156h0.813V77.199z"/>
</g>
<g>
	<path fill="#68BA5E" d="M286.182,51.593h1.021c1.773,0,3.092,0.416,3.955,1.248c0.862,0.832,1.295,2.092,1.295,3.783v3.183
		c0,0.45,0.052,0.853,0.152,1.207c0.101,0.353,0.278,0.652,0.53,0.896c0.253,0.243,0.59,0.43,1.014,0.558
		c0.422,0.128,0.949,0.193,1.584,0.193h0.593v1.916h-0.593c-0.67,0-1.219,0.055-1.647,0.166c-0.426,0.11-0.759,0.277-0.999,0.503
		c-0.239,0.225-0.404,0.512-0.496,0.861c-0.091,0.349-0.138,0.763-0.138,1.24v4.824c0,0.772-0.091,1.468-0.275,2.088
		s-0.481,1.149-0.896,1.585c-0.413,0.437-0.955,0.772-1.626,1.006c-0.671,0.234-1.488,0.351-2.453,0.351h-1.021v-1.93h0.827
		c2.122,0,3.184-1.033,3.184-3.101v-4.768c0-2.242,0.969-3.5,2.908-3.776c-1.958-0.211-2.937-1.475-2.937-3.79v-3.156
		c0-2.104-1.051-3.156-3.155-3.156h-0.827V51.593z"/>
</g>
</svg>
